<svg xmlns="http://www.w3.org/2000/svg" xmlns:xlink="http://www.w3.org/1999/xlink" viewBox="0 0 177.04 205.33"><defs><style>.cls-1{fill:#74e21e;}.cls-2{fill:url(#linear-gradient);}.cls-3{fill:url(#linear-gradient-2);}.cls-4{fill:url(#linear-gradient-3);}.cls-5{font-size:76px;fill:#fff;font-family:HighTowerText-Reg, High Tower Text;}</style><linearGradient id="linear-gradient" x1="66.34" y1="187.04" x2="99.19" y2="187.04" gradientUnits="userSpaceOnUse"><stop offset="0" stop-color="#fff"/><stop offset="0.01" stop-color="#de6262"/><stop offset="1" stop-color="#ffb88c"/></linearGradient><linearGradient id="linear-gradient-2" x1="122.87" y1="188.57" x2="155.72" y2="188.57" xlink:href="#linear-gradient"/><linearGradient id="linear-gradient-3" x1="192.67" y1="375.09" x2="365.23" y2="375.09" xlink:href="#linear-gradient"/></defs><title>agrokart_Icon</title><g id="Layer_3" data-name="Layer 3"><path class="cls-1" d="M335,295c-14,15.72-31.78,26.08-51.34,31.72a4.5,4.5,0,0,1-1.59.64,4.65,4.65,0,0,1-2.29.9,4.37,4.37,0,0,1-1.36.47,4.48,4.48,0,0,1-1.64.68l.2,0a63.23,63.23,0,0,0-27.9,14C238.5,343.5,230,350,230,358.08c-14,10.82-21.57,27.16-25.27,44.13a5.83,5.83,0,0,1,0,2.28c.17,9.8,1.49,17.42,3.08,17.42,0-4,4.28-7.14,9.56-7.14l-.15.21-16.81,34,.15-.22c-5.33,8.75-8.78,18.46-12.3,28H202c0-23.17,6-41.93,13.4-41.93h0c3.29,1.74,9.45,2.91,16.52,2.91l0,.24a5.49,5.49,0,0,1,.58,0,5.27,5.27,0,0,1,1.7.27c58-1.09,104.64-44.21,104.64-97.34,3.47,0,6.3-29.27,6.46-66.09C344.66,282.09,340.21,288.92,335,295Z" transform="translate(-188.19 -271.47)"/><path class="cls-1" d="M345.28,271.47c0,1.12,0,2.24,0,3.35A20.81,20.81,0,0,0,345.28,271.47Z" transform="translate(-188.19 -271.47)"/></g><g id="Layer_2" data-name="Layer 2"><circle class="cls-2" cx="82.76" cy="187.04" r="16.43"/><circle class="cls-3" cx="139.29" cy="188.57" r="16.43"/><path class="cls-4" d="M348.1,435.88l-.36-.09c0-6.19-1-11.19-2.25-11.19l-84.09,1c-1.31,0-2.38-5.33-2.38-11.92l83.75-.68,22.46-55.83c0-8.09-3.8-14.64-8.51-14.64l-117.44.34-7.15-21.44c0-4.11-2.59-7.44-5.79-7.44H192.77c-.4,5.53.44,10.06,1.91,10.18h25.53l31,111.3,96.79.67Z" transform="translate(-188.19 -271.47)"/></g><g id="Text"><text class="cls-5" transform="translate(80.81 131.85)">A</text></g></svg>